<svg width="32" height="32" viewBox="0 0 32 32" fill="none" xmlns="http://www.w3.org/2000/svg">
    <path
        d="M0 16C0 7.16344 7.16344 0 16 0C24.8366 0 32 7.16344 32 16C32 24.8366 24.8366 32 16 32C7.16344 32 0 24.8366 0 16Z"
        fill="#95F31F" />
    <path
        d="M14.7974 9.08871L16.3269 14.0587L20.5508 10.6384L22.3794 13.6961L18.1323 15.9064L22.6687 18.4824L20.4115 21.3032L16.6552 18.14L16.6232 22.9087L12.9229 22.693L14.1177 17.6409L9.61121 19.1812L8.71837 15.7505L14.0026 15.0629L11.4167 10.5493L14.7974 9.08871Z"
        fill="#0047FD" />
</svg>